<?xml version="1.0" encoding="utf-8"?>
<!-- Generator: Adobe Illustrator 24.1.3, SVG Export Plug-In . SVG Version: 6.00 Build 0)  -->
<svg version="1.1" id="Calque_1" xmlns="http://www.w3.org/2000/svg" xmlns:xlink="http://www.w3.org/1999/xlink" x="0px" y="0px"
	 viewBox="0 0 959.2 313.1" style="enable-background:new 0 0 959.2 313.1;" xml:space="preserve">
<style type="text/css">
	.st0{fill:#FFFFFF;}
</style>
<g id="Calque_2_1_">
	<g id="Calque_1-2">
		<path class="st0" d="M4.7,48c6.9,0,13.7,0.8,20.4,2.3c4.5,1,8.8,2.4,13.1,4c4.5,1.8,8.9,4.1,13,6.8c4.6,3,8.9,6.5,12.8,10.4
			c4.2,4.1,8,8.7,11.4,13.5c-2.1-0.3-3.9-0.7-5.8-0.9c-3.4-0.5-6.8,0-10,1.2c-1.1,0.4-1.4,0.9-0.8,2c3.4,7.3,6.6,14.8,9.6,22.3
			c5.7,14.3,10.2,29.1,13.6,44.2c3.1,14.4,5.2,29,6.4,43.7c0.3,2.8,0.4,5.6,0.5,8.4c0,1.1,0.3,1.6,1.5,1.2
			c8.3-2.8,16.8-2.7,25.3-2.1c1.5,0.1,1.8-0.4,1.8-1.7c0-41.3,0-82.7,0-124c0-1.3-0.2-1.8-1.7-2c-4.7-0.5-9.4,0-13.9,1.3
			c-1.7,0.5-3.1,1.6-5.2,2.1l35.3-76.9l35.3,76.9c-2.8-0.7-5-2.3-7.6-2.8c-3.9-0.8-8-1-12-0.6c-1,0.1-1.3,0.4-1.2,1.3
			c0,0.3,0,0.6,0,0.9c0,41.2,0,82.3,0,123.5c0,1.7,0.4,2.1,2.1,1.9c6.8-0.7,13.6-0.4,20.4,0.8c1.6,0.3,3.1,0.8,4.6,1.3
			c1.2,0.4,1.4,0,1.5-1.1c0.4-8.1,1.2-16.2,2.2-24.3c1-7.8,2.2-15.5,3.7-23.2c2.6-12.7,6-25.2,10.3-37.4c2.8-7.9,5.8-15.6,9.2-23.2
			c1.6-3.5,3.1-7.1,4.7-10.6c0.5-1.1,0.1-1.5-0.9-1.9c-4.1-1.8-8.4-1.7-12.7-0.9l-3.1,0.5c1.6-2.5,3.4-4.8,5.3-7
			c4-4.9,8.6-9.3,13.5-13.1c2.8-2.2,5.8-4.2,8.9-5.9c5.8-3.2,12-5.8,18.4-7.6c8-2.5,16.1-2.9,24.6-3.5c-2,2.9-3.9,5.5-5.8,8.1
			c-4.6,6.7-9,13.5-13.1,20.4c-3,5.2-6,10.4-8.7,15.7c-3.2,6.3-6.2,12.7-8.9,19.2c-2.6,6.1-4.9,12.2-7.1,18.4
			c-3.5,10.1-6.5,20.3-9,30.6c-2.4,10.1-4.3,20.3-5.8,30.5c-1.6,11-2.7,22.1-3.4,33.2c-0.3,5.2-0.7,10.4-0.5,15.7
			c0.1,1.5-0.8,0.9-1.4,0.7c-4.5-1.1-8.9-2.4-13.4-3.7c-3-0.9-6.1-1.2-9.1-1.9c-8-2.1-16.2-2.1-24.3-2.3c-1.7-0.1-2.2,0.3-2.2,2.2
			c0.1,24.1,0,48.2,0.1,72.2c0,1.6-0.4,2.1-2.1,2.1c-8.4-0.1-16.8-0.1-25.2,0c-1.6,0-2.1-0.3-2.1-2.1c0.1-24.1,0-48.2,0.1-72.2
			c0-1.8-0.4-2.2-2.2-2.2c-7,0.1-14,0.3-20.9,1.5c-4.9,0.8-9.8,1.9-14.6,3.4c-3.7,1.2-7.5,2-11.3,3.1c-0.7,0.2-1.5,0.6-1.4-0.9
			c0.2-7.2-0.4-14.3-0.9-21.5c-0.9-12.4-2.4-24.8-4.5-37.1c-1.8-10.2-4-20.3-6.7-30.3c-3.4-12.5-7.5-24.8-12.4-36.7
			c-2.7-6.6-5.7-13.1-8.9-19.4c-4.4-8.7-9.1-17.1-14.3-25.4c-3.7-5.8-7.5-11.5-11.5-17.1C6.6,50.8,5.7,49.5,4.7,48z"/>
		<path class="st0" d="M230.9,251.6V130.1h52.7l14.2,18.8v49.7l-14.2,18.8h-31.8v34.4H230.9z M251.8,194h20.7l4.3-5.7v-29.2
			l-4.3-5.7h-20.7V194z"/>
		<path class="st0" d="M326,251.6L310.4,231v-80.3l15.6-20.7h41l15.5,20.7V231L367,251.6H326z M336.8,228.3h19.4l5.5-7.1v-60.8
			l-5.5-7.1h-19.4l-5.5,7.1v60.8L336.8,228.3z"/>
		<path class="st0" d="M397,251.6v-23.3h39.5l3.4-4.3v-17.5l-3.5-4.7H409l-13.6-18.1v-35.9l13.3-17.7h48.9v23.3h-37.9l-3.3,4.4V174
			l3.4,4.7h27.4l13.6,18.1v37.2l-13.3,17.7L397,251.6z"/>
		<path class="st0" d="M474.3,251.6V130.1h61.1v23.3h-40.3v26.2h29.9v21.5h-29.9v27.3h41.3v23.3L474.3,251.6z"/>
		<path class="st0" d="M545.3,251.6v-21.9h13.2v-77.8h-13.2v-21.9h47.2v21.9h-13.2v77.8h13.2v21.9L545.3,251.6z"/>
		<path class="st0" d="M606.6,251.6V130.1h54.2l15.5,20.7V231l-15.5,20.6H606.6z M627.4,228.3H650l5.5-7.1v-60.8l-5.5-7.1h-22.6
			V228.3z"/>
		<path class="st0" d="M707,251.6L691.4,231v-80.3l15.6-20.7h41l15.5,20.7V231L748,251.6H707z M717.8,228.3h19.4l5.5-7.1v-60.8
			l-5.5-7.1h-19.5l-5.5,7.1v60.8L717.8,228.3z"/>
		<path class="st0" d="M780.2,251.6V130.1h31.6l21.6,89.1h2.3V130h19.4v121.6h-31.6L802,162.5h-2.3v89.1H780.2z"/>
	</g>
</g>
</svg>
